<svg xmlns="http://www.w3.org/2000/svg" viewBox="0 0 500 500" width="500" height="500" fill="#ecf5ff">
<!-- QR Content: https://github.com/cestef/meshlink -->
<path d="M0 0 L120.7 0 L120.7 120.7 L0 120.7 L0 17.2 L0 0 ZM17.2 17.2 L17.2 103.4 L103.4 103.4 L103.4 17.2 L34.5 17.2 L17.2 17.2 Z"/>
<path d="M189.7 0 L224.1 0 L224.1 17.2 L189.7 17.2 L189.7 0 Z"/>
<path d="M258.6 0 L310.3 0 L310.3 17.2 L293.1 17.2 L293.1 34.5 L275.9 34.5 L275.9 17.2 L258.6 17.2 L258.6 0 Z"/>
<path d="M379.3 0 L500 0 L500 120.7 L379.3 120.7 L379.3 17.2 L379.3 0 ZM396.6 17.2 L396.6 103.4 L482.8 103.4 L482.8 17.2 L413.8 17.2 L396.6 17.2 Z"/>
<path d="M155.2 17.2 L189.7 17.2 L189.7 34.5 L155.2 34.5 L155.2 17.2 Z"/>
<path d="M224.1 17.2 L258.6 17.2 L258.6 34.5 L241.4 34.5 L241.4 51.7 L224.1 51.7 L224.1 69 L206.9 69 L206.9 34.5 L224.1 34.5 L224.1 17.2 Z"/>
<path d="M344.8 17.2 L362.1 17.2 L362.1 34.5 L344.8 34.5 L344.8 17.2 Z"/>
<path d="M34.5 34.5 L86.2 34.5 L86.2 86.2 L34.5 86.2 L34.5 51.7 L34.5 34.5 Z"/>
<path d="M258.6 34.5 L275.9 34.5 L275.9 51.7 L258.6 51.7 L258.6 34.5 Z"/>
<path d="M310.3 34.5 L344.8 34.5 L344.8 51.7 L310.3 51.7 L310.3 34.5 Z"/>
<path d="M413.8 34.5 L465.5 34.5 L465.5 86.2 L413.8 86.2 L413.8 51.7 L413.8 34.5 Z"/>
<path d="M137.9 51.7 L155.2 51.7 L155.2 69 L172.4 69 L172.4 86.2 L137.9 86.2 L137.9 69 L137.9 51.7 Z"/>
<path d="M275.9 51.7 L310.3 51.7 L310.3 69 L293.1 69 L293.1 86.2 L275.9 86.2 L275.9 103.4 L258.6 103.4 L258.6 69 L275.9 69 L275.9 51.7 Z"/>
<path d="M310.3 69 L362.1 69 L362.1 137.9 L344.8 137.9 L344.8 86.2 L310.3 86.2 L310.3 69 Z"/>
<path d="M189.7 86.2 L224.1 86.2 L224.1 120.7 L206.9 120.7 L206.9 103.4 L189.7 103.4 L189.7 86.2 Z"/>
<path d="M137.9 103.4 L155.2 103.4 L155.2 120.7 L137.9 120.7 L137.9 103.4 Z"/>
<path d="M172.4 103.4 L189.7 103.4 L189.7 120.7 L206.9 120.7 L206.9 155.2 L189.7 155.2 L189.7 137.9 L172.4 137.9 L172.4 120.7 L172.4 103.4 Z"/>
<path d="M241.4 103.4 L258.6 103.4 L258.6 120.7 L275.9 120.7 L275.9 103.4 L293.1 103.4 L293.1 137.9 L241.4 137.9 L241.4 120.7 L241.4 103.4 Z"/>
<path d="M310.3 103.4 L327.6 103.4 L327.6 120.7 L310.3 120.7 L310.3 103.4 Z"/>
<path d="M0 137.9 L34.5 137.9 L34.5 155.2 L0 155.2 L0 137.9 Z"/>
<path d="M86.2 137.9 L137.9 137.9 L137.9 155.2 L155.2 155.2 L155.2 137.9 L172.4 137.9 L172.4 172.4 L155.2 172.4 L155.2 189.7 L172.4 189.7 L172.4 224.1 L69 224.1 L69 189.7 L103.4 189.7 L103.4 206.9 L137.9 206.9 L137.9 189.7 L103.4 189.7 L103.4 172.4 L120.7 172.4 L120.7 155.2 L103.4 155.2 L103.4 172.4 L86.2 172.4 L86.2 155.2 L86.2 137.9 Z"/>
<path d="M293.1 137.9 L310.3 137.9 L310.3 155.2 L293.1 155.2 L293.1 137.9 Z"/>
<path d="M413.8 137.9 L448.3 137.9 L448.3 155.2 L431 155.2 L431 189.7 L413.8 189.7 L413.8 172.4 L396.6 172.4 L396.6 155.2 L413.8 155.2 L413.8 137.9 Z"/>
<path d="M206.9 155.2 L241.4 155.2 L241.4 172.4 L275.9 172.4 L275.9 155.2 L293.1 155.2 L293.1 172.4 L310.3 172.4 L310.3 189.7 L275.9 189.7 L275.9 206.9 L258.6 206.9 L258.6 189.7 L241.4 189.7 L241.4 224.1 L189.7 224.1 L189.7 206.9 L206.9 206.9 L206.9 189.7 L224.1 189.7 L224.1 172.4 L206.9 172.4 L206.9 155.2 Z"/>
<path d="M310.3 155.2 L344.8 155.2 L344.8 172.4 L310.3 172.4 L310.3 155.2 Z"/>
<path d="M362.1 155.2 L379.3 155.2 L379.3 172.4 L362.1 172.4 L362.1 155.2 Z"/>
<path d="M448.3 155.2 L482.8 155.2 L482.8 172.4 L448.3 172.4 L448.3 155.2 Z"/>
<path d="M0 172.4 L17.2 172.4 L17.2 189.7 L0 189.7 L0 172.4 Z"/>
<path d="M34.5 172.4 L51.7 172.4 L51.7 189.7 L34.5 189.7 L34.5 172.4 Z"/>
<path d="M172.4 172.4 L189.7 172.4 L189.7 189.7 L172.4 189.7 L172.4 172.4 Z"/>
<path d="M344.8 172.4 L362.1 172.4 L362.1 189.7 L344.8 189.7 L344.8 172.4 Z"/>
<path d="M310.3 189.7 L344.8 189.7 L344.8 206.9 L362.1 206.9 L362.1 241.4 L379.3 241.4 L379.3 258.6 L344.8 258.6 L344.8 241.4 L310.3 241.4 L310.3 258.6 L293.1 258.6 L293.1 241.4 L275.9 241.4 L275.9 275.9 L258.6 275.9 L258.6 224.1 L275.9 224.1 L275.9 206.9 L293.1 206.9 L293.1 224.1 L310.3 224.1 L310.3 206.9 L310.3 189.7 Z"/>
<path d="M362.1 189.7 L379.3 189.7 L379.3 206.9 L362.1 206.9 L362.1 189.7 Z"/>
<path d="M431 189.7 L448.3 189.7 L448.3 206.9 L431 206.9 L431 189.7 Z"/>
<path d="M34.5 206.9 L51.7 206.9 L51.7 224.1 L34.5 224.1 L34.5 206.9 Z"/>
<path d="M379.3 206.9 L413.8 206.9 L413.8 224.1 L431 224.1 L431 241.4 L465.5 241.4 L465.5 293.1 L500 293.1 L500 327.6 L482.8 327.6 L482.8 310.3 L448.3 310.3 L448.3 293.1 L431 293.1 L431 275.9 L448.3 275.9 L448.3 258.6 L431 258.6 L431 275.9 L413.8 275.9 L413.8 293.1 L431 293.1 L431 310.3 L448.3 310.3 L448.3 327.6 L413.8 327.6 L413.8 310.3 L379.3 310.3 L379.3 293.1 L396.6 293.1 L396.6 258.6 L413.8 258.6 L413.8 241.4 L379.3 241.4 L379.3 224.1 L379.3 206.9 Z"/>
<path d="M482.8 206.9 L500 206.9 L500 241.4 L465.5 241.4 L465.5 224.1 L482.8 224.1 L482.8 206.9 Z"/>
<path d="M0 224.1 L34.5 224.1 L34.5 241.4 L17.2 241.4 L17.2 258.6 L0 258.6 L0 241.4 L0 224.1 Z"/>
<path d="M51.7 224.1 L69 224.1 L69 258.6 L51.7 258.6 L51.7 293.1 L34.5 293.1 L34.5 241.4 L51.7 241.4 L51.7 224.1 Z"/>
<path d="M86.2 241.4 L120.7 241.4 L120.7 258.6 L103.4 258.6 L103.4 275.9 L86.2 275.9 L86.2 258.6 L86.2 241.4 Z"/>
<path d="M137.9 241.4 L172.4 241.4 L172.4 275.9 L155.2 275.9 L155.2 258.6 L137.9 258.6 L137.9 241.4 Z"/>
<path d="M189.7 241.4 L224.1 241.4 L224.1 258.6 L206.9 258.6 L206.9 293.1 L189.7 293.1 L189.7 258.6 L189.7 241.4 Z"/>
<path d="M120.7 258.6 L137.9 258.6 L137.9 275.9 L120.7 275.9 L120.7 258.6 Z"/>
<path d="M327.6 258.6 L344.8 258.6 L344.8 327.6 L327.6 327.6 L327.6 310.3 L310.3 310.3 L310.3 327.6 L293.1 327.6 L293.1 310.3 L275.9 310.3 L275.9 327.6 L258.6 327.6 L258.6 310.3 L206.9 310.3 L206.9 293.1 L293.1 293.1 L293.1 275.9 L310.3 275.9 L310.3 293.1 L327.6 293.1 L327.6 275.9 L327.6 258.6 Z"/>
<path d="M482.8 258.6 L500 258.6 L500 275.9 L482.8 275.9 L482.8 258.6 Z"/>
<path d="M69 275.9 L86.2 275.9 L86.2 293.1 L69 293.1 L69 275.9 Z"/>
<path d="M103.4 275.9 L120.7 275.9 L120.7 293.1 L103.4 293.1 L103.4 275.9 Z"/>
<path d="M362.1 275.9 L379.3 275.9 L379.3 293.1 L362.1 293.1 L362.1 275.9 Z"/>
<path d="M0 293.1 L34.5 293.1 L34.5 327.6 L17.2 327.6 L17.2 362.1 L0 362.1 L0 310.3 L0 293.1 Z"/>
<path d="M137.9 293.1 L155.2 293.1 L155.2 310.3 L137.9 310.3 L137.9 293.1 Z"/>
<path d="M172.4 293.1 L189.7 293.1 L189.7 310.3 L206.9 310.3 L206.9 327.6 L189.7 327.6 L189.7 379.3 L172.4 379.3 L172.4 362.1 L155.2 362.1 L155.2 344.8 L137.9 344.8 L137.9 362.1 L86.2 362.1 L86.2 344.8 L120.7 344.8 L120.7 327.6 L86.2 327.6 L86.2 310.3 L137.9 310.3 L137.9 327.6 L172.4 327.6 L172.4 310.3 L172.4 293.1 Z"/>
<path d="M51.7 310.3 L69 310.3 L69 327.6 L86.2 327.6 L86.2 344.8 L51.7 344.8 L51.7 327.6 L51.7 310.3 Z"/>
<path d="M206.9 327.6 L241.4 327.6 L241.4 344.8 L224.1 344.8 L224.1 362.1 L206.9 362.1 L206.9 344.8 L206.9 327.6 Z"/>
<path d="M344.8 327.6 L362.1 327.6 L362.1 344.8 L379.3 344.8 L379.3 327.6 L396.6 327.6 L396.6 344.8 L431 344.8 L431 362.1 L448.3 362.1 L448.3 379.3 L465.5 379.3 L465.5 396.6 L431 396.6 L431 413.8 L448.3 413.8 L448.3 431 L465.5 431 L465.5 448.3 L482.8 448.3 L482.8 465.5 L465.5 465.5 L465.5 500 L448.3 500 L448.3 482.8 L431 482.8 L431 465.5 L413.8 465.5 L413.8 482.8 L431 482.8 L431 500 L379.3 500 L379.3 465.5 L293.1 465.5 L293.1 448.3 L327.6 448.3 L327.6 379.3 L344.8 379.3 L344.8 362.1 L327.6 362.1 L327.6 344.8 L344.8 344.8 L344.8 327.6 ZM362.1 362.1 L362.1 413.8 L413.8 413.8 L413.8 362.1 L379.3 362.1 L362.1 362.1 ZM379.3 431 L379.3 448.3 L431 448.3 L431 431 L396.6 431 L379.3 431 Z"/>
<path d="M34.5 344.8 L51.7 344.8 L51.7 362.1 L34.5 362.1 L34.5 344.8 Z"/>
<path d="M241.4 344.8 L258.6 344.8 L258.6 362.1 L275.9 362.1 L275.9 396.6 L258.6 396.6 L258.6 379.3 L241.4 379.3 L241.4 362.1 L241.4 344.8 Z"/>
<path d="M293.1 344.8 L310.3 344.8 L310.3 362.1 L293.1 362.1 L293.1 344.8 Z"/>
<path d="M448.3 344.8 L500 344.8 L500 362.1 L448.3 362.1 L448.3 344.8 Z"/>
<path d="M137.9 362.1 L155.2 362.1 L155.2 396.6 L172.4 396.6 L172.4 413.8 L137.9 413.8 L137.9 379.3 L137.9 362.1 Z"/>
<path d="M310.3 362.1 L327.6 362.1 L327.6 379.3 L310.3 379.3 L310.3 362.1 Z"/>
<path d="M0 379.3 L120.7 379.3 L120.7 500 L0 500 L0 396.6 L0 379.3 ZM17.2 396.6 L17.2 482.8 L103.4 482.8 L103.4 396.6 L34.5 396.6 L17.2 396.6 Z"/>
<path d="M189.7 379.3 L224.1 379.3 L224.1 396.6 L206.9 396.6 L206.9 413.8 L189.7 413.8 L189.7 396.6 L189.7 379.3 Z"/>
<path d="M379.3 379.3 L396.6 379.3 L396.6 396.6 L379.3 396.6 L379.3 379.3 Z"/>
<path d="M241.4 396.6 L258.6 396.6 L258.6 431 L275.9 431 L275.9 396.6 L293.1 396.6 L293.1 448.3 L275.9 448.3 L275.9 465.5 L258.6 465.5 L258.6 500 L241.4 500 L241.4 482.8 L224.1 482.8 L224.1 500 L206.9 500 L206.9 465.5 L224.1 465.5 L224.1 448.3 L206.9 448.3 L206.9 431 L224.1 431 L224.1 413.8 L241.4 413.8 L241.4 396.6 Z"/>
<path d="M482.8 396.6 L500 396.6 L500 448.3 L482.8 448.3 L482.8 431 L465.5 431 L465.5 413.8 L482.8 413.8 L482.8 396.6 Z"/>
<path d="M34.5 413.8 L86.2 413.8 L86.2 465.5 L34.5 465.5 L34.5 431 L34.5 413.8 Z"/>
<path d="M172.4 413.8 L189.7 413.8 L189.7 431 L172.4 431 L172.4 413.8 Z"/>
<path d="M137.9 465.5 L155.2 465.5 L155.2 482.8 L189.7 482.8 L189.7 500 L137.9 500 L137.9 482.8 L137.9 465.5 Z"/>
<path d="M275.9 465.5 L293.1 465.5 L293.1 482.8 L275.9 482.8 L275.9 465.5 Z"/>
<path d="M482.8 465.5 L500 465.5 L500 482.8 L482.8 482.8 L482.8 465.5 Z"/>
<path d="M293.1 482.8 L310.3 482.8 L310.3 500 L293.1 500 L293.1 482.8 Z"/>
<path d="M327.6 482.8 L344.8 482.8 L344.8 500 L327.6 500 L327.6 482.8 Z"/>

</svg>